General
Complete name                  : E:Revolution.2012.S01E02.HDTV.XviD-DEF.avi
Format                         : AVI
Format/Info                    : Audio Video Interleave
File size                      : 350 MiB
Duration                       : 42mn 40s
Overall bit rate               : 1 145 Kbps
Writing application            : MEncoder SVN-r30881(20100311-gcc4.3.3)
Writing library                : MPlayer

Video
ID                             : 0
Format                         : MPEG-4 Visual
Format profile                 : Simple@L1
Format settings, BVOP          : No
Format settings, QPel          : No
Format settings, GMC           : No warppoints
Format settings, Matrix        : Default (H.263)
Codec ID                       : DX50
Codec ID/Hint                  : DivX 5
Duration                       : 42mn 40s
Bit rate                       : 1 004 Kbps
Width                          : 640 pixels
Height                         : 360 pixels
Display aspect ratio           : 16:9
Frame rate                     : 23.976 fps
Color space                    : YUV
Chroma subsampling             : 4:2:0
Bit depth                      : 8 bits
Scan type                      : Progressive
Compression mode               : Lossy
Bits/(Pixel*Frame)             : 0.182
Stream size                    : 307 MiB (88%)
Writing library                : Lavc52.58.0

Audio
ID                             : 1
Format                         : MPEG Audio
Format version                 : Version 1
Format profile                 : Layer 3
Mode                           : Joint stereo
Mode extension                 : MS Stereo
Codec ID                       : 55
Codec ID/Hint                  : MP3
Duration                       : 42mn 40s
Bit rate mode                  : Constant
Bit rate                       : 128 Kbps
Channel(s)                     : 2 channels
Sampling rate                  : 48.0 KHz
Compression mode               : Lossy
Stream size                    : 39.1 MiB (11%)
Alignment                      : Aligned on interleaves
Interleave, duration           : 24 ms (0.58 video frame)
Interleave, preload duration   : 504 ms
